<svg width="14" height="14" viewBox="0 0 14 14" fill="none" xmlns="http://www.w3.org/2000/svg">
<circle cx="7" cy="7" r="4.375" fill="#E13D32"/>
<path d="M14 7C14 5.61553 13.5895 4.26215 12.8203 3.11101C12.0511 1.95986 10.9579 1.06266 9.67878 0.532843C8.3997 0.00302983 6.99223 -0.135594 5.63437 0.134503C4.2765 0.4046 3.02922 1.07129 2.05025 2.05025C1.07128 3.02922 0.4046 4.2765 0.134503 5.63437C-0.135594 6.99223 0.00302985 8.3997 0.532843 9.67878C1.06266 10.9579 1.95986 12.0511 3.11101 12.8203C4.26215 13.5895 5.61553 14 7 14V12.95C5.8232 12.95 4.67283 12.601 3.69436 11.9472C2.71588 11.2935 1.95326 10.3642 1.50292 9.27697C1.05258 8.18975 0.934745 6.9934 1.16433 5.83921C1.39391 4.68503 1.96059 3.62484 2.79271 2.79271C3.62484 1.96059 4.68503 1.39391 5.83921 1.16433C6.9934 0.934745 8.18975 1.05258 9.27697 1.50292C10.3642 1.95326 11.2935 2.71588 11.9472 3.69436C12.601 4.67283 12.95 5.8232 12.95 7H14Z" fill="#000000"/>
</svg>
