<svg width="16" height="16" viewBox="0 0 16 16" fill="none" xmlns="http://www.w3.org/2000/svg">
<rect width="16" height="16" fill="black"/>
<circle cx="8" cy="8" r="4.375" fill="#E13D32"/>
<path d="M15 8C15 6.61553 14.5895 5.26215 13.8203 4.11101C13.0511 2.95986 11.9579 2.06266 10.6788 1.53284C9.3997 1.00303 7.99223 0.864406 6.63437 1.1345C5.2765 1.4046 4.02922 2.07129 3.05025 3.05025C2.07128 4.02922 1.4046 5.2765 1.1345 6.63437C0.864406 7.99223 1.00303 9.3997 1.53284 10.6788C2.06266 11.9579 2.95986 13.0511 4.11101 13.8203C5.26215 14.5895 6.61553 15 8 15V13.95C6.8232 13.95 5.67283 13.601 4.69436 12.9472C3.71588 12.2935 2.95326 11.3642 2.50292 10.277C2.05258 9.18975 1.93475 7.9934 2.16433 6.83921C2.39391 5.68503 2.96059 4.62484 3.79271 3.79271C4.62484 2.96059 5.68503 2.39391 6.83921 2.16433C7.9934 1.93475 9.18975 2.05258 10.277 2.50292C11.3642 2.95326 12.2935 3.71588 12.9472 4.69436C13.601 5.67283 13.95 6.8232 13.95 8H15Z" fill="white"/>
</svg>
