<svg width="695" height="1080" viewBox="0 0 695 1080" fill="none" xmlns="http://www.w3.org/2000/svg">
<path d="M490.4 1210.2C402.8 1210.2 315.2 1199.4 227.6 1177.8C141.2 1156.2 65.6 1125.6 0.8 1086L130.4 817.8C180.8 851.4 236.6 877.2 297.8 895.2C360.2 913.2 420.8 922.2 479.6 922.2C540.8 922.2 589.4 910.8 625.4 888C661.4 865.2 679.4 832.8 679.4 790.8C679.4 753.6 664.4 724.2 634.4 702.6C604.4 679.8 555.2 668.4 486.8 668.4H337.4V443.4L675.8 78L710 200.4H65.6V-75.0001H976.4V148.2L638 513.6L463.4 414.6H560.6C717.8 414.6 836.6 450 917 520.8C998.6 590.4 1039.4 680.4 1039.4 790.8C1039.4 862.8 1019.6 930.6 980 994.2C941.6 1057.8 882.2 1110 801.8 1150.8C721.4 1190.4 617.6 1210.2 490.4 1210.2Z" fill="white" fill-opacity="0.03"/>
</svg>
