<svg width="731" height="1080" viewBox="0 0 731 1080" fill="none" xmlns="http://www.w3.org/2000/svg">
<path d="M65 1185V961.8L536.6 520.8C570.2 489.6 594.8 462 610.4 438C627.2 414 638 392.4 642.8 373.2C648.8 352.8 651.8 334.2 651.8 317.4C651.8 276.6 638 244.8 610.4 222C584 199.2 543.8 187.8 489.8 187.8C444.2 187.8 401.6 198 362 218.4C322.4 238.8 290 269.4 264.8 310.2L0.2 162.6C47 83.4 114.8 19.8 203.6 -28.2C292.4 -76.2001 398.6 -100.2 522.2 -100.2C619.4 -100.2 704.6 -84.6001 777.8 -53.4C851 -22.2001 908 22.1999 948.8 79.8C990.8 137.4 1011.8 205.2 1011.8 283.2C1011.8 324 1006.4 364.8 995.6 405.6C984.8 445.2 963.8 487.8 932.6 533.4C902.6 577.8 857.6 627.6 797.6 682.8L423.2 1028.4L363.8 902.4H1046V1185H65Z" fill="white" fill-opacity="0.05"/>
</svg>
