<svg width="706" height="1080" viewBox="0 0 706 1080" fill="none" xmlns="http://www.w3.org/2000/svg">
<path d="M488.2 1210.2C401.8 1210.2 314.8 1199.4 227.2 1177.8C139.6 1156.2 64 1125.6 0.400001 1086L128.2 817.8C179.8 851.4 235.6 877.2 295.6 895.2C356.8 913.2 417.4 922.2 477.4 922.2C537.4 922.2 586 910.8 623.2 888C660.4 864 679 831 679 789C679 763.8 671.8 741.6 657.4 722.4C643 702 618.4 687 583.6 677.4C548.8 666.6 499 661.2 434.2 661.2H92.2L155.2 -75.0001H958V200.4H281.2L463 43.8L421.6 540.6L239.8 384H518.8C643.6 384 743.8 402 819.4 438C895 472.8 950.2 520.2 985 580.2C1019.8 639 1037.2 705.6 1037.2 780C1037.2 854.4 1017.4 924.6 977.8 990.6C939.4 1055.4 880 1108.2 799.6 1149C719.2 1189.8 615.4 1210.2 488.2 1210.2Z" fill="white" fill-opacity="0.02"/>
</svg>
